<svg width="20" height="20" viewBox="0 0 20 20" fill="none" xmlns="http://www.w3.org/2000/svg">
<path fill-rule="evenodd" clip-rule="evenodd" d="M0.833374 10C0.833374 15.0627 4.93743 19.1667 10 19.1667C15.0627 19.1667 19.1667 15.0627 19.1667 10C19.1667 4.93743 15.0627 0.833374 10 0.833374C4.93743 0.833374 0.833374 4.93743 0.833374 10ZM2.66671 10C2.66671 5.94995 5.94995 2.66671 10 2.66671C14.0501 2.66671 17.3334 5.94995 17.3334 10C17.3334 14.0501 14.0501 17.3334 10 17.3334C5.94995 17.3334 2.66671 14.0501 2.66671 10ZM9.99993 4.27087C9.37465 4.27087 8.8749 4.79101 8.89989 5.41579L9.10621 10.5736C9.12539 11.0533 9.51985 11.4323 9.99993 11.4323C10.48 11.4323 10.8745 11.0533 10.8937 10.5736L11.1 5.41579C11.125 4.79101 10.6252 4.27087 9.99993 4.27087ZM8.68233 14.1537C8.68233 13.4418 9.25947 12.8646 9.9714 12.8646C10.6833 12.8646 11.2605 13.4418 11.2605 14.1537C11.2605 14.8656 10.6833 15.4427 9.9714 15.4427C9.25947 15.4427 8.68233 14.8656 8.68233 14.1537Z" fill="#C4C8D4"/>
</svg>
