<svg width="20" height="20" viewBox="0 0 20 20" fill="none" xmlns="http://www.w3.org/2000/svg">
<path fill-rule="evenodd" clip-rule="evenodd" d="M19.1666 10C19.1666 15.0627 15.0626 19.1667 9.99996 19.1667C4.93735 19.1667 0.833292 15.0627 0.833292 10C0.833292 4.93743 4.93735 0.833374 9.99996 0.833374C15.0626 0.833374 19.1666 4.93743 19.1666 10ZM14.4968 4.20683C13.255 3.24153 11.6946 2.66671 9.99996 2.66671C5.94987 2.66671 2.66663 5.94995 2.66663 10C2.66663 11.6947 3.24145 13.2551 4.20676 14.4969L14.4968 4.20683ZM15.7932 5.50319C16.7585 6.74498 17.3333 8.30538 17.3333 10C17.3333 14.0501 14.05 17.3334 9.99996 17.3334C8.30531 17.3334 6.74491 16.7586 5.50312 15.7932L15.7932 5.50319Z" fill="#C4C8D4"/>
</svg>
