<svg width="18" height="20" viewBox="0 0 18 20" fill="none" xmlns="http://www.w3.org/2000/svg">
<path fill-rule="evenodd" clip-rule="evenodd" d="M8.00631 9.05061C8.00631 9.60314 8.45403 10.051 9.00631 10.051C9.5586 10.051 10.0063 9.60314 10.0063 9.05061V1.00044C10.0063 0.447912 9.5586 -2.4225e-08 9.00631 0C8.45403 2.4225e-08 8.00631 0.447912 8.00631 1.00044V9.05061ZM13.9352 4.51632C14.3241 4.12393 14.9545 4.12393 15.3433 4.51632C17.3286 6.5198 17.997 9.11037 17.997 10.9547C17.997 12.8083 17.3232 15.3241 15.3433 17.322C13.358 19.3255 10.7909 20 8.96324 20C7.12647 20 4.63355 19.32 2.65369 17.322C0.66837 15.3185 0 12.728 0 10.8836C0 9.03002 0.673839 6.51429 2.65369 4.51632C3.04252 4.12393 3.67294 4.12393 4.06176 4.51632C4.45059 4.9087 4.45059 5.54488 4.06176 5.93727C2.51614 7.49704 1.99131 9.46947 1.99131 10.8836C1.99131 12.3069 2.52161 14.3468 4.06176 15.9011C5.60739 17.4608 7.56194 17.9905 8.96324 17.9905C10.3737 17.9905 12.3951 17.4553 13.9352 15.9011C15.4809 14.3413 16.0057 12.3689 16.0057 10.9547C16.0057 9.53142 15.4754 7.49152 13.9352 5.93727C13.5464 5.54488 13.5464 4.9087 13.9352 4.51632Z" fill="#8992A9"/>
</svg>
