<svg width="20" height="20" viewBox="0 0 20 20" fill="none" xmlns="http://www.w3.org/2000/svg">
<path fill-rule="evenodd" clip-rule="evenodd" d="M19.1666 7.7085C19.1666 11.5055 16.0886 14.5835 12.2916 14.5835C10.7043 14.5835 9.24262 14.0455 8.07894 13.142C8.03511 13.2348 7.97485 13.3217 7.89816 13.3983L2.39816 18.8983C2.04018 19.2563 1.45978 19.2563 1.1018 18.8983C0.743818 18.5404 0.743818 17.96 1.1018 17.602L6.6018 12.102C6.67849 12.0253 6.76539 11.965 6.85812 11.9212C5.95459 10.7575 5.41665 9.29583 5.41665 7.7085C5.41665 3.91154 8.49469 0.833496 12.2916 0.833496C16.0886 0.833496 19.1666 3.91154 19.1666 7.7085ZM17.3333 7.7085C17.3333 4.92406 15.0761 2.66683 12.2916 2.66683C9.50721 2.66683 7.24998 4.92406 7.24998 7.7085C7.24998 10.4929 9.50721 12.7502 12.2916 12.7502C15.0761 12.7502 17.3333 10.4929 17.3333 7.7085Z" fill="#C4C8D4"/>
</svg>
